<mxfile host="app.diagrams.net" modified="2024-03-25T12:44:40.260Z" agent="Mozilla/5.0 (Windows NT 10.0; Win64; x64) AppleWebKit/537.36 (KHTML, like Gecko) Chrome/122.0.0.0 Safari/537.36 Edg/122.0.0.0" etag="Dhayk6vTwE76vFBAdCVL" version="24.0.7" type="device">
  <diagram name="Страница — 1" id="pIH_gM4bzzfKMZtcR0t7">
    <mxGraphModel dx="1830" dy="589" grid="1" gridSize="10" guides="1" tooltips="1" connect="1" arrows="1" fold="1" page="1" pageScale="1" pageWidth="827" pageHeight="1169" math="0" shadow="0">
      <root>
        <mxCell id="0" />
        <mxCell id="1" parent="0" />
        <mxCell id="NjHDWYLpvqpNlZsGFkSn-1" value="" style="rounded=1;whiteSpace=wrap;html=1;" vertex="1" parent="1">
          <mxGeometry x="-100" y="180" width="1470" height="760" as="geometry" />
        </mxCell>
        <mxCell id="zxTre6GYapRcSWn1uz2c-5" value="" style="rounded=1;whiteSpace=wrap;html=1;" parent="1" vertex="1">
          <mxGeometry x="170" y="480" width="120" height="60" as="geometry" />
        </mxCell>
        <mxCell id="zxTre6GYapRcSWn1uz2c-6" value="" style="rounded=1;whiteSpace=wrap;html=1;" parent="1" vertex="1">
          <mxGeometry x="220" y="590" width="120" height="60" as="geometry" />
        </mxCell>
        <mxCell id="zxTre6GYapRcSWn1uz2c-7" value="" style="rounded=1;whiteSpace=wrap;html=1;" parent="1" vertex="1">
          <mxGeometry x="110" y="590" width="70" height="60" as="geometry" />
        </mxCell>
        <mxCell id="zxTre6GYapRcSWn1uz2c-8" value="" style="rounded=1;whiteSpace=wrap;html=1;" parent="1" vertex="1">
          <mxGeometry x="630" y="500" width="70" height="60" as="geometry" />
        </mxCell>
        <mxCell id="zxTre6GYapRcSWn1uz2c-9" value="" style="rounded=1;whiteSpace=wrap;html=1;" parent="1" vertex="1">
          <mxGeometry x="780" y="400" width="120" height="60" as="geometry" />
        </mxCell>
        <mxCell id="zxTre6GYapRcSWn1uz2c-10" value="" style="rounded=1;whiteSpace=wrap;html=1;" parent="1" vertex="1">
          <mxGeometry x="780" y="585" width="120" height="60" as="geometry" />
        </mxCell>
        <mxCell id="zxTre6GYapRcSWn1uz2c-11" value="" style="rounded=1;whiteSpace=wrap;html=1;" parent="1" vertex="1">
          <mxGeometry x="500" y="435" width="80" height="190" as="geometry" />
        </mxCell>
        <mxCell id="zxTre6GYapRcSWn1uz2c-13" value="" style="rounded=1;whiteSpace=wrap;html=1;" parent="1" vertex="1">
          <mxGeometry x="1000" y="447.5" width="70" height="165" as="geometry" />
        </mxCell>
        <mxCell id="zxTre6GYapRcSWn1uz2c-14" value="" style="endArrow=none;html=1;rounded=0;entryX=1;entryY=0.5;entryDx=0;entryDy=0;exitX=0;exitY=0.5;exitDx=0;exitDy=0;" parent="1" source="zxTre6GYapRcSWn1uz2c-8" target="zxTre6GYapRcSWn1uz2c-11" edge="1">
          <mxGeometry width="50" height="50" relative="1" as="geometry">
            <mxPoint x="270" y="670" as="sourcePoint" />
            <mxPoint x="320" y="620" as="targetPoint" />
          </mxGeometry>
        </mxCell>
        <mxCell id="zxTre6GYapRcSWn1uz2c-16" value="" style="endArrow=none;html=1;rounded=0;entryX=1;entryY=0.5;entryDx=0;entryDy=0;exitX=0;exitY=0.5;exitDx=0;exitDy=0;" parent="1" source="zxTre6GYapRcSWn1uz2c-9" target="zxTre6GYapRcSWn1uz2c-8" edge="1">
          <mxGeometry width="50" height="50" relative="1" as="geometry">
            <mxPoint x="270" y="670" as="sourcePoint" />
            <mxPoint x="320" y="620" as="targetPoint" />
            <Array as="points">
              <mxPoint x="740" y="430" />
              <mxPoint x="740" y="530" />
            </Array>
          </mxGeometry>
        </mxCell>
        <mxCell id="zxTre6GYapRcSWn1uz2c-18" value="" style="endArrow=none;html=1;rounded=0;entryX=0;entryY=0.5;entryDx=0;entryDy=0;exitX=1;exitY=0.75;exitDx=0;exitDy=0;" parent="1" source="zxTre6GYapRcSWn1uz2c-8" target="zxTre6GYapRcSWn1uz2c-10" edge="1">
          <mxGeometry width="50" height="50" relative="1" as="geometry">
            <mxPoint x="270" y="670" as="sourcePoint" />
            <mxPoint x="320" y="620" as="targetPoint" />
            <Array as="points">
              <mxPoint x="740" y="545" />
              <mxPoint x="740" y="615" />
            </Array>
          </mxGeometry>
        </mxCell>
        <mxCell id="zxTre6GYapRcSWn1uz2c-19" value="" style="endArrow=none;html=1;rounded=0;entryX=1;entryY=0.5;entryDx=0;entryDy=0;" parent="1" target="zxTre6GYapRcSWn1uz2c-13" edge="1">
          <mxGeometry width="50" height="50" relative="1" as="geometry">
            <mxPoint x="1250" y="530" as="sourcePoint" />
            <mxPoint x="320" y="620" as="targetPoint" />
          </mxGeometry>
        </mxCell>
        <mxCell id="zxTre6GYapRcSWn1uz2c-20" value="" style="endArrow=none;html=1;rounded=0;entryX=0;entryY=0.5;entryDx=0;entryDy=0;" parent="1" target="zxTre6GYapRcSWn1uz2c-5" edge="1" source="NjHDWYLpvqpNlZsGFkSn-10">
          <mxGeometry width="50" height="50" relative="1" as="geometry">
            <mxPoint x="-30" y="510" as="sourcePoint" />
            <mxPoint x="320" y="620" as="targetPoint" />
          </mxGeometry>
        </mxCell>
        <mxCell id="zxTre6GYapRcSWn1uz2c-21" value="" style="endArrow=none;html=1;rounded=0;entryX=0;entryY=0.5;entryDx=0;entryDy=0;exitX=1.006;exitY=0.119;exitDx=0;exitDy=0;exitPerimeter=0;" parent="1" edge="1" source="NjHDWYLpvqpNlZsGFkSn-11">
          <mxGeometry width="50" height="50" relative="1" as="geometry">
            <mxPoint x="-20" y="619" as="sourcePoint" />
            <mxPoint x="110" y="619.09" as="targetPoint" />
          </mxGeometry>
        </mxCell>
        <mxCell id="zxTre6GYapRcSWn1uz2c-22" value="" style="endArrow=none;html=1;rounded=0;entryX=0;entryY=0.5;entryDx=0;entryDy=0;exitX=1;exitY=0.5;exitDx=0;exitDy=0;" parent="1" source="zxTre6GYapRcSWn1uz2c-7" target="zxTre6GYapRcSWn1uz2c-6" edge="1">
          <mxGeometry width="50" height="50" relative="1" as="geometry">
            <mxPoint x="270" y="670" as="sourcePoint" />
            <mxPoint x="320" y="620" as="targetPoint" />
          </mxGeometry>
        </mxCell>
        <mxCell id="zxTre6GYapRcSWn1uz2c-23" value="" style="endArrow=none;html=1;rounded=0;entryX=1;entryY=0.5;entryDx=0;entryDy=0;" parent="1" source="zxTre6GYapRcSWn1uz2c-11" target="zxTre6GYapRcSWn1uz2c-6" edge="1">
          <mxGeometry width="50" height="50" relative="1" as="geometry">
            <mxPoint x="270" y="670" as="sourcePoint" />
            <mxPoint x="320" y="620" as="targetPoint" />
          </mxGeometry>
        </mxCell>
        <mxCell id="zxTre6GYapRcSWn1uz2c-24" value="" style="endArrow=none;html=1;rounded=0;entryX=1;entryY=0.5;entryDx=0;entryDy=0;exitX=0;exitY=0.5;exitDx=0;exitDy=0;" parent="1" source="zxTre6GYapRcSWn1uz2c-11" target="zxTre6GYapRcSWn1uz2c-5" edge="1">
          <mxGeometry width="50" height="50" relative="1" as="geometry">
            <mxPoint x="510" y="558" as="sourcePoint" />
            <mxPoint x="350" y="630" as="targetPoint" />
          </mxGeometry>
        </mxCell>
        <mxCell id="zxTre6GYapRcSWn1uz2c-27" value="" style="endArrow=none;html=1;rounded=0;entryX=1;entryY=0.5;entryDx=0;entryDy=0;exitX=-0.004;exitY=0.532;exitDx=0;exitDy=0;exitPerimeter=0;" parent="1" source="zxTre6GYapRcSWn1uz2c-13" target="zxTre6GYapRcSWn1uz2c-10" edge="1">
          <mxGeometry width="50" height="50" relative="1" as="geometry">
            <mxPoint x="1000" y="535" as="sourcePoint" />
            <mxPoint x="920" y="635" as="targetPoint" />
            <Array as="points">
              <mxPoint x="960" y="535" />
              <mxPoint x="960" y="615" />
            </Array>
          </mxGeometry>
        </mxCell>
        <mxCell id="zxTre6GYapRcSWn1uz2c-28" value="" style="endArrow=none;html=1;rounded=0;entryX=-0.02;entryY=0.32;entryDx=0;entryDy=0;exitX=1;exitY=0.75;exitDx=0;exitDy=0;entryPerimeter=0;" parent="1" target="zxTre6GYapRcSWn1uz2c-13" edge="1">
          <mxGeometry width="50" height="50" relative="1" as="geometry">
            <mxPoint x="900" y="430" as="sourcePoint" />
            <mxPoint x="980" y="500" as="targetPoint" />
            <Array as="points">
              <mxPoint x="960" y="430" />
              <mxPoint x="960" y="500" />
            </Array>
          </mxGeometry>
        </mxCell>
        <mxCell id="zxTre6GYapRcSWn1uz2c-30" value="" style="endArrow=none;html=1;rounded=0;exitX=0;exitY=0.75;exitDx=0;exitDy=0;" parent="1" source="zxTre6GYapRcSWn1uz2c-7" edge="1">
          <mxGeometry width="50" height="50" relative="1" as="geometry">
            <mxPoint x="110" y="635" as="sourcePoint" />
            <mxPoint x="740" y="610" as="targetPoint" />
            <Array as="points">
              <mxPoint x="90" y="635" />
              <mxPoint x="90" y="760" />
              <mxPoint x="740" y="760" />
            </Array>
          </mxGeometry>
        </mxCell>
        <mxCell id="zxTre6GYapRcSWn1uz2c-32" value="" style="endArrow=none;html=1;rounded=0;exitX=0.5;exitY=0;exitDx=0;exitDy=0;entryX=0.097;entryY=0.484;entryDx=0;entryDy=0;entryPerimeter=0;" parent="1" source="zxTre6GYapRcSWn1uz2c-7" edge="1">
          <mxGeometry width="50" height="50" relative="1" as="geometry">
            <mxPoint x="130" y="580" as="sourcePoint" />
            <mxPoint x="144.76000000000022" y="570.0799999999998" as="targetPoint" />
          </mxGeometry>
        </mxCell>
        <mxCell id="zxTre6GYapRcSWn1uz2c-34" value="" style="endArrow=none;html=1;rounded=0;exitX=0.5;exitY=0;exitDx=0;exitDy=0;entryX=0.579;entryY=0.339;entryDx=0;entryDy=0;entryPerimeter=0;" parent="1" source="zxTre6GYapRcSWn1uz2c-8" edge="1">
          <mxGeometry width="50" height="50" relative="1" as="geometry">
            <mxPoint x="155" y="600" as="sourcePoint" />
            <mxPoint x="665.3200000000002" y="480.17999999999995" as="targetPoint" />
          </mxGeometry>
        </mxCell>
        <mxCell id="zxTre6GYapRcSWn1uz2c-35" value="" style="endArrow=none;html=1;rounded=0;entryX=0.25;entryY=0;entryDx=0;entryDy=0;exitX=0.444;exitY=0.194;exitDx=0;exitDy=0;exitPerimeter=0;" parent="1" target="zxTre6GYapRcSWn1uz2c-11" edge="1">
          <mxGeometry width="50" height="50" relative="1" as="geometry">
            <mxPoint x="519.52" y="390.28" as="sourcePoint" />
            <mxPoint x="400" y="430" as="targetPoint" />
          </mxGeometry>
        </mxCell>
        <mxCell id="zxTre6GYapRcSWn1uz2c-36" value="" style="endArrow=none;html=1;rounded=0;entryX=0.25;entryY=0;entryDx=0;entryDy=0;exitX=0.444;exitY=0.194;exitDx=0;exitDy=0;exitPerimeter=0;" parent="1" edge="1">
          <mxGeometry width="50" height="50" relative="1" as="geometry">
            <mxPoint x="560" y="390" as="sourcePoint" />
            <mxPoint x="560" y="435" as="targetPoint" />
          </mxGeometry>
        </mxCell>
        <mxCell id="zxTre6GYapRcSWn1uz2c-37" value="MUL" style="text;html=1;align=center;verticalAlign=middle;whiteSpace=wrap;rounded=0;" parent="1" vertex="1">
          <mxGeometry x="510" y="500" width="60" height="30" as="geometry" />
        </mxCell>
        <mxCell id="zxTre6GYapRcSWn1uz2c-38" value="DEMUX" style="text;html=1;align=center;verticalAlign=middle;whiteSpace=wrap;rounded=0;" parent="1" vertex="1">
          <mxGeometry x="635" y="515" width="60" height="30" as="geometry" />
        </mxCell>
        <mxCell id="zxTre6GYapRcSWn1uz2c-39" value="MUX" style="text;html=1;align=center;verticalAlign=middle;whiteSpace=wrap;rounded=0;" parent="1" vertex="1">
          <mxGeometry x="115" y="605" width="60" height="30" as="geometry" />
        </mxCell>
        <mxCell id="zxTre6GYapRcSWn1uz2c-40" value="" style="endArrow=none;html=1;rounded=0;entryX=0;entryY=0.25;entryDx=0;entryDy=0;" parent="1" target="zxTre6GYapRcSWn1uz2c-7" edge="1">
          <mxGeometry width="50" height="50" relative="1" as="geometry">
            <mxPoint x="80" y="510" as="sourcePoint" />
            <mxPoint x="400" y="430" as="targetPoint" />
            <Array as="points">
              <mxPoint x="80" y="605" />
            </Array>
          </mxGeometry>
        </mxCell>
        <mxCell id="zxTre6GYapRcSWn1uz2c-41" value="&lt;font style=&quot;font-size: 9px;&quot;&gt;mng&lt;/font&gt;" style="text;html=1;align=center;verticalAlign=middle;whiteSpace=wrap;rounded=0;" parent="1" vertex="1">
          <mxGeometry x="115" y="550" width="60" height="15" as="geometry" />
        </mxCell>
        <mxCell id="zxTre6GYapRcSWn1uz2c-42" value="&lt;font style=&quot;font-size: 9px;&quot;&gt;mng&lt;/font&gt;" style="text;html=1;align=center;verticalAlign=middle;whiteSpace=wrap;rounded=0;" parent="1" vertex="1">
          <mxGeometry x="635" y="470" width="60" height="10" as="geometry" />
        </mxCell>
        <mxCell id="zxTre6GYapRcSWn1uz2c-43" value="clk" style="text;html=1;align=center;verticalAlign=middle;whiteSpace=wrap;rounded=0;" parent="1" vertex="1">
          <mxGeometry x="490" y="370" width="60" height="30" as="geometry" />
        </mxCell>
        <mxCell id="zxTre6GYapRcSWn1uz2c-44" value="start" style="text;html=1;align=center;verticalAlign=middle;whiteSpace=wrap;rounded=0;" parent="1" vertex="1">
          <mxGeometry x="530" y="380" width="60" height="10" as="geometry" />
        </mxCell>
        <mxCell id="zxTre6GYapRcSWn1uz2c-45" value="REG A&lt;br&gt;[0:7]" style="text;html=1;align=center;verticalAlign=middle;whiteSpace=wrap;rounded=0;" parent="1" vertex="1">
          <mxGeometry x="200" y="495" width="60" height="30" as="geometry" />
        </mxCell>
        <mxCell id="zxTre6GYapRcSWn1uz2c-46" value="REG B&lt;br&gt;[0:15]" style="text;html=1;align=center;verticalAlign=middle;whiteSpace=wrap;rounded=0;" parent="1" vertex="1">
          <mxGeometry x="250" y="605" width="60" height="30" as="geometry" />
        </mxCell>
        <mxCell id="zxTre6GYapRcSWn1uz2c-49" value="REG AAA&lt;br&gt;[0:23]" style="text;html=1;align=center;verticalAlign=middle;whiteSpace=wrap;rounded=0;" parent="1" vertex="1">
          <mxGeometry x="810" y="600" width="60" height="30" as="geometry" />
        </mxCell>
        <mxCell id="zxTre6GYapRcSWn1uz2c-50" value="REG AB&lt;br&gt;[0:15]" style="text;html=1;align=center;verticalAlign=middle;whiteSpace=wrap;rounded=0;" parent="1" vertex="1">
          <mxGeometry x="810" y="415" width="60" height="30" as="geometry" />
        </mxCell>
        <mxCell id="zxTre6GYapRcSWn1uz2c-51" value="ADDER" style="text;html=1;align=center;verticalAlign=middle;whiteSpace=wrap;rounded=0;" parent="1" vertex="1">
          <mxGeometry x="1005" y="515" width="60" height="30" as="geometry" />
        </mxCell>
        <mxCell id="k30qHx_4KiSMYOBZk84a-1" value="State" style="rounded=1;whiteSpace=wrap;html=1;" parent="1" vertex="1">
          <mxGeometry x="600" y="300" width="95" height="40" as="geometry" />
        </mxCell>
        <mxCell id="k30qHx_4KiSMYOBZk84a-2" value="" style="endArrow=none;html=1;rounded=0;entryX=0.25;entryY=1;entryDx=0;entryDy=0;exitX=0.5;exitY=0;exitDx=0;exitDy=0;" parent="1" source="zxTre6GYapRcSWn1uz2c-44" target="k30qHx_4KiSMYOBZk84a-1" edge="1">
          <mxGeometry width="50" height="50" relative="1" as="geometry">
            <mxPoint x="570" y="560" as="sourcePoint" />
            <mxPoint x="620" y="510" as="targetPoint" />
          </mxGeometry>
        </mxCell>
        <mxCell id="k30qHx_4KiSMYOBZk84a-4" value="" style="endArrow=none;html=1;rounded=0;entryX=0.5;entryY=1;entryDx=0;entryDy=0;exitX=0.5;exitY=0;exitDx=0;exitDy=0;" parent="1" source="zxTre6GYapRcSWn1uz2c-42" target="k30qHx_4KiSMYOBZk84a-1" edge="1">
          <mxGeometry width="50" height="50" relative="1" as="geometry">
            <mxPoint x="550" y="480" as="sourcePoint" />
            <mxPoint x="600" y="430" as="targetPoint" />
          </mxGeometry>
        </mxCell>
        <mxCell id="k30qHx_4KiSMYOBZk84a-5" value="" style="endArrow=none;html=1;rounded=0;entryX=0;entryY=0.5;entryDx=0;entryDy=0;exitX=0.5;exitY=0;exitDx=0;exitDy=0;" parent="1" source="zxTre6GYapRcSWn1uz2c-41" target="k30qHx_4KiSMYOBZk84a-1" edge="1">
          <mxGeometry width="50" height="50" relative="1" as="geometry">
            <mxPoint x="510" y="530" as="sourcePoint" />
            <mxPoint x="560" y="480" as="targetPoint" />
            <Array as="points">
              <mxPoint x="150" y="320" />
            </Array>
          </mxGeometry>
        </mxCell>
        <mxCell id="k30qHx_4KiSMYOBZk84a-6" value="" style="endArrow=none;html=1;rounded=0;entryX=0.5;entryY=1;entryDx=0;entryDy=0;" parent="1" source="zxTre6GYapRcSWn1uz2c-11" target="k30qHx_4KiSMYOBZk84a-1" edge="1">
          <mxGeometry width="50" height="50" relative="1" as="geometry">
            <mxPoint x="370" y="530" as="sourcePoint" />
            <mxPoint x="420" y="480" as="targetPoint" />
          </mxGeometry>
        </mxCell>
        <mxCell id="k30qHx_4KiSMYOBZk84a-7" value="state" style="text;html=1;align=center;verticalAlign=middle;whiteSpace=wrap;rounded=0;" parent="1" vertex="1">
          <mxGeometry x="570" y="385" width="60" height="30" as="geometry" />
        </mxCell>
        <mxCell id="k30qHx_4KiSMYOBZk84a-10" value="" style="endArrow=none;html=1;rounded=0;entryX=0.033;entryY=0.132;entryDx=0;entryDy=0;entryPerimeter=0;" parent="1" edge="1">
          <mxGeometry width="50" height="50" relative="1" as="geometry">
            <mxPoint x="147.36" y="460" as="sourcePoint" />
            <mxPoint x="499.9999999999999" y="460.08000000000004" as="targetPoint" />
          </mxGeometry>
        </mxCell>
        <mxCell id="k30qHx_4KiSMYOBZk84a-11" value="state_next" style="text;html=1;align=center;verticalAlign=middle;whiteSpace=wrap;rounded=0;" parent="1" vertex="1">
          <mxGeometry x="440" y="435" width="50" height="25" as="geometry" />
        </mxCell>
        <mxCell id="NjHDWYLpvqpNlZsGFkSn-2" value="" style="rounded=1;whiteSpace=wrap;html=1;" vertex="1" parent="1">
          <mxGeometry x="-240" y="760" width="90" height="80" as="geometry" />
        </mxCell>
        <mxCell id="NjHDWYLpvqpNlZsGFkSn-3" value="" style="rounded=1;whiteSpace=wrap;html=1;" vertex="1" parent="1">
          <mxGeometry x="-240" y="370" width="90" height="80" as="geometry" />
        </mxCell>
        <mxCell id="NjHDWYLpvqpNlZsGFkSn-4" value="" style="rounded=1;whiteSpace=wrap;html=1;" vertex="1" parent="1">
          <mxGeometry x="-240" y="270" width="90" height="80" as="geometry" />
        </mxCell>
        <mxCell id="NjHDWYLpvqpNlZsGFkSn-5" value="" style="rounded=1;whiteSpace=wrap;html=1;rotation=90;" vertex="1" parent="1">
          <mxGeometry x="-255" y="490" width="120" height="60" as="geometry" />
        </mxCell>
        <mxCell id="NjHDWYLpvqpNlZsGFkSn-6" value="" style="rounded=1;whiteSpace=wrap;html=1;rotation=90;" vertex="1" parent="1">
          <mxGeometry x="-255" y="630" width="120" height="60" as="geometry" />
        </mxCell>
        <mxCell id="NjHDWYLpvqpNlZsGFkSn-7" value="&lt;font style=&quot;font-size: 24px;&quot;&gt;CLK&lt;/font&gt;&lt;div&gt;&lt;font size=&quot;3&quot;&gt;E3&lt;/font&gt;&lt;/div&gt;" style="text;html=1;align=center;verticalAlign=middle;whiteSpace=wrap;rounded=0;" vertex="1" parent="1">
          <mxGeometry x="-250" y="280" width="110" height="70" as="geometry" />
        </mxCell>
        <mxCell id="NjHDWYLpvqpNlZsGFkSn-8" value="&lt;span style=&quot;font-size: 24px;&quot;&gt;START&lt;/span&gt;&lt;div&gt;&lt;span style=&quot;font-size: 24px;&quot;&gt;btnc&lt;/span&gt;&lt;/div&gt;" style="text;html=1;align=center;verticalAlign=middle;whiteSpace=wrap;rounded=0;" vertex="1" parent="1">
          <mxGeometry x="-250" y="377.5" width="110" height="70" as="geometry" />
        </mxCell>
        <mxCell id="NjHDWYLpvqpNlZsGFkSn-9" value="&lt;span style=&quot;font-size: 24px;&quot;&gt;RST&lt;/span&gt;&lt;div&gt;&lt;span style=&quot;font-size: 24px;&quot;&gt;btnr&lt;/span&gt;&lt;/div&gt;" style="text;html=1;align=center;verticalAlign=middle;whiteSpace=wrap;rounded=0;" vertex="1" parent="1">
          <mxGeometry x="-250" y="770" width="110" height="70" as="geometry" />
        </mxCell>
        <mxCell id="NjHDWYLpvqpNlZsGFkSn-10" value="sw0&lt;div&gt;sw1&lt;/div&gt;&lt;div&gt;sw2&lt;/div&gt;&lt;div&gt;sw3&lt;/div&gt;&lt;div&gt;sw4&lt;/div&gt;&lt;div&gt;sw5&lt;/div&gt;&lt;div&gt;sw6&lt;/div&gt;&lt;div&gt;sw7&lt;/div&gt;" style="text;html=1;align=center;verticalAlign=middle;whiteSpace=wrap;rounded=0;" vertex="1" parent="1">
          <mxGeometry x="-225" y="465" width="60" height="115" as="geometry" />
        </mxCell>
        <mxCell id="NjHDWYLpvqpNlZsGFkSn-11" value="sw8&lt;div&gt;sw9&lt;/div&gt;&lt;div&gt;sw10&lt;/div&gt;&lt;div&gt;sw11&lt;/div&gt;&lt;div&gt;sw12&lt;/div&gt;&lt;div&gt;sw13&lt;/div&gt;&lt;div&gt;sw14&lt;/div&gt;&lt;div&gt;sw15&lt;/div&gt;" style="text;html=1;align=center;verticalAlign=middle;whiteSpace=wrap;rounded=0;" vertex="1" parent="1">
          <mxGeometry x="-225" y="605" width="60" height="115" as="geometry" />
        </mxCell>
        <mxCell id="NjHDWYLpvqpNlZsGFkSn-13" value="" style="endArrow=none;html=1;rounded=0;exitX=0;exitY=0.179;exitDx=0;exitDy=0;exitPerimeter=0;" edge="1" parent="1" source="NjHDWYLpvqpNlZsGFkSn-1">
          <mxGeometry width="50" height="50" relative="1" as="geometry">
            <mxPoint x="-60" y="390" as="sourcePoint" />
            <mxPoint x="-150" y="310" as="targetPoint" />
          </mxGeometry>
        </mxCell>
        <mxCell id="NjHDWYLpvqpNlZsGFkSn-14" value="" style="endArrow=none;html=1;rounded=0;exitX=-0.003;exitY=0.298;exitDx=0;exitDy=0;exitPerimeter=0;" edge="1" parent="1" source="NjHDWYLpvqpNlZsGFkSn-1">
          <mxGeometry width="50" height="50" relative="1" as="geometry">
            <mxPoint x="180" y="570" as="sourcePoint" />
            <mxPoint x="-150" y="406" as="targetPoint" />
          </mxGeometry>
        </mxCell>
        <mxCell id="NjHDWYLpvqpNlZsGFkSn-15" value="" style="endArrow=none;html=1;rounded=0;entryX=-0.001;entryY=0.8;entryDx=0;entryDy=0;entryPerimeter=0;" edge="1" parent="1" target="NjHDWYLpvqpNlZsGFkSn-1">
          <mxGeometry width="50" height="50" relative="1" as="geometry">
            <mxPoint x="-150" y="790" as="sourcePoint" />
            <mxPoint x="230" y="520" as="targetPoint" />
          </mxGeometry>
        </mxCell>
        <mxCell id="NjHDWYLpvqpNlZsGFkSn-17" value="res_to_seg7" style="rounded=1;whiteSpace=wrap;html=1;" vertex="1" parent="1">
          <mxGeometry x="1191" y="390" width="99" height="340" as="geometry" />
        </mxCell>
        <mxCell id="NjHDWYLpvqpNlZsGFkSn-18" value="BUSY&lt;div&gt;LD0&lt;/div&gt;" style="rounded=1;whiteSpace=wrap;html=1;" vertex="1" parent="1">
          <mxGeometry x="1420" y="270" width="90" height="60" as="geometry" />
        </mxCell>
        <mxCell id="NjHDWYLpvqpNlZsGFkSn-19" value="&lt;font style=&quot;font-size: 17px;&quot;&gt;AN0&lt;/font&gt;&lt;div style=&quot;font-size: 17px;&quot;&gt;&lt;font style=&quot;font-size: 17px;&quot;&gt;A N1&lt;/font&gt;&lt;/div&gt;&lt;div style=&quot;font-size: 17px;&quot;&gt;&lt;font style=&quot;font-size: 17px;&quot;&gt;AN2&lt;/font&gt;&lt;/div&gt;&lt;div style=&quot;font-size: 17px;&quot;&gt;&lt;font style=&quot;font-size: 17px;&quot;&gt;AN3&lt;/font&gt;&lt;/div&gt;&lt;div style=&quot;font-size: 17px;&quot;&gt;&lt;font style=&quot;font-size: 17px;&quot;&gt;AN4&lt;/font&gt;&lt;/div&gt;&lt;div style=&quot;font-size: 17px;&quot;&gt;&lt;font style=&quot;font-size: 17px;&quot;&gt;AN5&lt;/font&gt;&lt;/div&gt;&lt;div style=&quot;font-size: 17px;&quot;&gt;&lt;font style=&quot;font-size: 17px;&quot;&gt;AN6&lt;/font&gt;&lt;/div&gt;&lt;div style=&quot;font-size: 17px;&quot;&gt;&lt;font style=&quot;font-size: 17px;&quot;&gt;AN7&lt;/font&gt;&lt;/div&gt;" style="rounded=1;whiteSpace=wrap;html=1;" vertex="1" parent="1">
          <mxGeometry x="1427.5" y="335" width="75" height="210" as="geometry" />
        </mxCell>
        <mxCell id="NjHDWYLpvqpNlZsGFkSn-20" value="&lt;font style=&quot;font-size: 17px;&quot;&gt;CA&lt;/font&gt;&lt;div style=&quot;font-size: 17px;&quot;&gt;&lt;font style=&quot;font-size: 17px;&quot;&gt;CB&lt;/font&gt;&lt;/div&gt;&lt;div style=&quot;font-size: 17px;&quot;&gt;&lt;font style=&quot;font-size: 17px;&quot;&gt;CC&lt;/font&gt;&lt;/div&gt;&lt;div style=&quot;font-size: 17px;&quot;&gt;&lt;font style=&quot;font-size: 17px;&quot;&gt;CD&lt;/font&gt;&lt;/div&gt;&lt;div style=&quot;font-size: 17px;&quot;&gt;&lt;font style=&quot;font-size: 17px;&quot;&gt;CE&lt;/font&gt;&lt;/div&gt;&lt;div style=&quot;font-size: 17px;&quot;&gt;&lt;font style=&quot;font-size: 17px;&quot;&gt;CF&lt;/font&gt;&lt;/div&gt;&lt;div style=&quot;font-size: 17px;&quot;&gt;&lt;font style=&quot;font-size: 17px;&quot;&gt;CG&lt;/font&gt;&lt;/div&gt;&lt;div style=&quot;font-size: 17px;&quot;&gt;&lt;font style=&quot;font-size: 17px;&quot;&gt;DP&lt;/font&gt;&lt;/div&gt;" style="rounded=1;whiteSpace=wrap;html=1;" vertex="1" parent="1">
          <mxGeometry x="1427.5" y="557.5" width="75" height="210" as="geometry" />
        </mxCell>
        <mxCell id="NjHDWYLpvqpNlZsGFkSn-21" value="FREQUENCY_DIVIDER&lt;div&gt;100 MHz&amp;nbsp; -&amp;gt; 500 Hz&lt;/div&gt;" style="rounded=1;whiteSpace=wrap;html=1;" vertex="1" parent="1">
          <mxGeometry x="960" y="670" width="140" height="120" as="geometry" />
        </mxCell>
        <mxCell id="NjHDWYLpvqpNlZsGFkSn-24" value="" style="endArrow=none;html=1;rounded=0;entryX=0;entryY=0.5;entryDx=0;entryDy=0;exitX=0.694;exitY=0.724;exitDx=0;exitDy=0;exitPerimeter=0;" edge="1" parent="1" source="NjHDWYLpvqpNlZsGFkSn-1" target="NjHDWYLpvqpNlZsGFkSn-21">
          <mxGeometry width="50" height="50" relative="1" as="geometry">
            <mxPoint x="1060" y="650" as="sourcePoint" />
            <mxPoint x="1110" y="600" as="targetPoint" />
          </mxGeometry>
        </mxCell>
        <mxCell id="NjHDWYLpvqpNlZsGFkSn-26" value="" style="endArrow=none;html=1;rounded=0;entryX=0.023;entryY=0.914;entryDx=0;entryDy=0;entryPerimeter=0;exitX=1;exitY=0.25;exitDx=0;exitDy=0;" edge="1" parent="1" source="NjHDWYLpvqpNlZsGFkSn-21" target="NjHDWYLpvqpNlZsGFkSn-17">
          <mxGeometry width="50" height="50" relative="1" as="geometry">
            <mxPoint x="1060" y="650" as="sourcePoint" />
            <mxPoint x="1110" y="600" as="targetPoint" />
          </mxGeometry>
        </mxCell>
        <mxCell id="NjHDWYLpvqpNlZsGFkSn-28" value="" style="endArrow=none;html=1;rounded=0;entryX=0.006;entryY=0.03;entryDx=0;entryDy=0;entryPerimeter=0;exitX=0.85;exitY=0.289;exitDx=0;exitDy=0;exitPerimeter=0;" edge="1" parent="1" source="NjHDWYLpvqpNlZsGFkSn-1" target="NjHDWYLpvqpNlZsGFkSn-17">
          <mxGeometry width="50" height="50" relative="1" as="geometry">
            <mxPoint x="1060" y="650" as="sourcePoint" />
            <mxPoint x="1110" y="600" as="targetPoint" />
          </mxGeometry>
        </mxCell>
        <mxCell id="NjHDWYLpvqpNlZsGFkSn-29" value="" style="endArrow=none;html=1;rounded=0;entryX=0;entryY=0.5;entryDx=0;entryDy=0;exitX=0.999;exitY=0.158;exitDx=0;exitDy=0;exitPerimeter=0;" edge="1" parent="1" source="NjHDWYLpvqpNlZsGFkSn-1" target="NjHDWYLpvqpNlZsGFkSn-18">
          <mxGeometry width="50" height="50" relative="1" as="geometry">
            <mxPoint x="1060" y="600" as="sourcePoint" />
            <mxPoint x="1110" y="550" as="targetPoint" />
          </mxGeometry>
        </mxCell>
        <mxCell id="NjHDWYLpvqpNlZsGFkSn-30" value="" style="endArrow=none;html=1;rounded=0;entryX=0;entryY=0.5;entryDx=0;entryDy=0;exitX=1.02;exitY=0.147;exitDx=0;exitDy=0;exitPerimeter=0;" edge="1" parent="1" source="NjHDWYLpvqpNlZsGFkSn-17" target="NjHDWYLpvqpNlZsGFkSn-19">
          <mxGeometry width="50" height="50" relative="1" as="geometry">
            <mxPoint x="1060" y="600" as="sourcePoint" />
            <mxPoint x="1110" y="550" as="targetPoint" />
          </mxGeometry>
        </mxCell>
        <mxCell id="NjHDWYLpvqpNlZsGFkSn-31" value="" style="endArrow=none;html=1;rounded=0;entryX=0.037;entryY=0.296;entryDx=0;entryDy=0;entryPerimeter=0;exitX=1.003;exitY=0.683;exitDx=0;exitDy=0;exitPerimeter=0;" edge="1" parent="1" source="NjHDWYLpvqpNlZsGFkSn-17" target="NjHDWYLpvqpNlZsGFkSn-20">
          <mxGeometry width="50" height="50" relative="1" as="geometry">
            <mxPoint x="1060" y="600" as="sourcePoint" />
            <mxPoint x="1110" y="550" as="targetPoint" />
          </mxGeometry>
        </mxCell>
        <mxCell id="NjHDWYLpvqpNlZsGFkSn-32" value="start" style="text;html=1;align=center;verticalAlign=middle;whiteSpace=wrap;rounded=0;" vertex="1" parent="1">
          <mxGeometry x="1100" y="385" width="60" height="30" as="geometry" />
        </mxCell>
        <mxCell id="NjHDWYLpvqpNlZsGFkSn-33" value="clk" style="text;html=1;align=center;verticalAlign=middle;whiteSpace=wrap;rounded=0;" vertex="1" parent="1">
          <mxGeometry x="870" y="715" width="60" height="30" as="geometry" />
        </mxCell>
        <mxCell id="NjHDWYLpvqpNlZsGFkSn-34" value="" style="rounded=1;whiteSpace=wrap;html=1;" vertex="1" parent="1">
          <mxGeometry x="1095" y="510" width="70" height="40" as="geometry" />
        </mxCell>
      </root>
    </mxGraphModel>
  </diagram>
</mxfile>
